<svg version="1.1" xmlns="http://www.w3.org/2000/svg" xmlns:xlink="http://www.w3.org/1999/xlink" width="349.366" height="57.43765"><g transform="translate(-54.999,-145.55135)"><g data-paper-data="{&quot;isPaintingLayer&quot;:true}" fill="#000000" fill-rule="nonzero" stroke="none" stroke-width="1" stroke-linecap="butt" stroke-linejoin="miter" stroke-miterlimit="10" stroke-dasharray="" stroke-dashoffset="0" font-family="none" font-weight="none" font-size="none" text-anchor="none" style="mix-blend-mode: normal"><g data-paper-data="{&quot;origPos&quot;:null}"><path d="M80.89846,160.61531v41.40461h-15.06396v-41.40461h-10.8355l0.88083,-13.3023h36.11961l-0.88083,13.3023z"/><path d="M129.86137,169.51266v32.50726h-14.97573v-27.4862c0,-1.32125 -0.61689,-2.20208 -1.93814,-2.20208c-1.49773,0 -3.08292,0.43964 -4.14023,1.23301v28.45527h-14.80002v-56.46858h14.71179v17.35429h0.35295c2.37856,-2.02561 5.28578,-4.141 10.65902,-4.141c7.57533,0 10.13036,3.96453 10.13036,10.74803z"/><path d="M152.0618,176.56011v-2.11385c0,-1.40949 -0.70436,-2.4668 -2.4668,-2.4668c-2.99545,0 -8.28123,1.14477 -13.21406,2.55426l-2.20286,-12.8611c6.16661,-1.58597 13.03836,-2.90799 19.38144,-2.90799c9.2503,0 12.86188,3.87706 12.86188,12.06928c0,5.46225 -0.44042,12.15752 -0.44042,18.23667c0,2.29032 1.05731,2.81898 3.69981,2.81898l-1.32125,10.65902c-2.55504,0.17648 -3.43587,0.35218 -5.63796,0.35218c-3.87629,0 -6.95998,-1.05654 -8.28123,-4.49241h-0.44042c-2.02638,2.81898 -4.58065,4.49241 -10.0429,4.49241c-7.04745,0 -10.74803,-4.84536 -10.74803,-12.50893c0,-10.39585 7.13646,-12.77441 18.85279,-13.83173zM152.67869,189.15805v-4.31671c-4.05199,0.52943 -5.99014,1.40949 -5.99014,4.49318c0,2.11385 0.88083,3.2594 2.73074,3.2594c2.20208,-0.00077 3.2594,-1.05731 3.2594,-3.43587z"/><path d="M208.19522,169.51266v32.50726h-14.97573v-27.4862c0,-1.32125 -0.61689,-2.20208 -1.93814,-2.20208c-1.49773,0 -3.08292,0.43964 -4.14023,1.23301v28.45527h-14.80002v-42.19798h13.47877l0.88083,3.08292h0.35218c2.37856,-2.02561 5.63796,-4.141 11.01197,-4.141c7.5761,0.00077 10.13036,3.9653 10.13036,10.74881z"/><path d="M233.1976,202.01993l-5.37324,-16.20951h-0.35218v16.20951h-14.36038v-56.46858h14.53608v31.097h0.35218l6.43133,-16.82563h15.41614l-8.89735,21.05487l8.54517,21.14234z"/><path d="M295.74455,185.10528v16.91464h-14.9765v-16.91464l-12.86188,-37.79227h16.56169l3.96375,17.7947h0.70513l3.78805,-17.7947h15.85733z"/><path d="M342.49531,180.17168c0,16.20951 -5.285,22.7283 -18.05942,22.7283c-12.86188,0 -18.4116,-6.69449 -18.4116,-22.11141c0,-15.59339 5.81443,-22.02395 18.4116,-22.02395c12.5097,0 18.05942,6.43133 18.05942,21.40705zM320.82432,179.81951v2.11385c0,7.92905 0.26471,9.95466 3.69981,9.95466c2.81898,0 3.2594,-1.93814 3.2594,-9.42601v-2.55504c0,-7.22392 -0.26471,-9.2503 -3.4351,-9.2503c-3.17193,0.00077 -3.52411,2.02716 -3.52411,9.16284z"/><path d="M346.29188,191.2719v-31.44995h14.9765v27.83838c0,1.32125 0.61689,2.20286 1.93814,2.20286c1.4985,0 3.08369,-0.44042 4.141,-1.23379v-28.80745h14.80002v42.02151h-14.00743v-3.08292h-0.35218c-2.37856,2.02561 -5.63796,4.14023 -11.01275,4.14023c-7.5761,0 -10.48332,-4.84536 -10.48332,-11.62887z"/><path d="M396.70066,189.06981c5.37402,0 7.66434,2.29032 7.66434,7.13568c0,4.22847 -2.29032,6.78351 -7.66434,6.78351c-5.54972,0 -7.84004,-2.55504 -7.84004,-6.95921c0,-4.66966 2.29032,-6.95998 7.84004,-6.95998zM389.0371,147.31302h14.9765l-1.23379,37.96874h-12.77364z"/></g></g></g></svg>