<svg version="1.1" xmlns="http://www.w3.org/2000/svg" xmlns:xlink="http://www.w3.org/1999/xlink" width="458.5" height="130"><g transform="translate(-13.5,-123.5)"><g data-paper-data="{&quot;isPaintingLayer&quot;:true}" fill="none" fill-rule="nonzero" stroke="none" stroke-width="none" stroke-linecap="butt" stroke-linejoin="miter" stroke-miterlimit="10" stroke-dasharray="" stroke-dashoffset="0" font-family="none" font-weight="none" font-size="none" text-anchor="none" style="mix-blend-mode: normal"><path d="M73.285,150.001l-1.594,16.617c-3.073,-0.342 -6.032,-0.569 -7.739,-0.569c-1.479,0 -2.049,0.683 -2.049,2.049v2.049h9.333l-0.911,14.113h-8.194v38.811h-19.007v-38.811h-5.008v-14.113h5.008v-5.691c0,-9.561 4.894,-15.138 15.365,-15.138c5.008,0 10.926,0.342 14.796,0.683z" fill="#000000" stroke-width="1"/><path d="M119.449,194.844c0,20.942 -6.829,29.364 -23.332,29.364c-16.617,0 -23.788,-8.649 -23.788,-28.567c0,-20.146 7.512,-28.454 23.788,-28.454c16.161,0 23.332,8.309 23.332,27.657zM91.45,194.389v2.731c0,10.244 0.341,12.861 4.78,12.861c3.642,0 4.211,-2.504 4.211,-12.178v-3.301c0,-9.333 -0.341,-11.951 -4.438,-11.951c-4.098,0.001 -4.553,2.619 -4.553,11.838z" fill="#000000" stroke-width="1"/><path d="M124.354,150.115h18.779v54.404c0,2.504 1.024,3.528 3.87,3.528l-1.479,16.161h-6.26c-9.674,0 -14.91,-3.527 -14.91,-13.657z" fill="#000000" stroke-width="1"/><path d="M150.508,150.115h18.779v54.404c0,2.504 1.024,3.528 3.87,3.528l-1.479,16.161h-6.26c-9.674,0 -14.91,-3.527 -14.91,-13.657z" fill="#000000" stroke-width="1"/><path d="M222.324,194.844c0,20.942 -6.829,29.364 -23.332,29.364c-16.617,0 -23.788,-8.649 -23.788,-28.567c0,-20.146 7.512,-28.454 23.788,-28.454c16.161,0 23.332,8.309 23.332,27.657zM194.325,194.389v2.731c0,10.244 0.341,12.861 4.78,12.861c3.642,0 4.211,-2.504 4.211,-12.178v-3.301c0,-9.333 -0.341,-11.951 -4.438,-11.951c-4.098,0.001 -4.553,2.619 -4.553,11.838z" fill="#000000" stroke-width="1"/><path d="M281.667,223.071h-20.829l-4.438,-22.99h-0.797l-4.325,22.99h-20.373l-6.943,-54.518h17.527l2.391,27.543h0.91l3.87,-27.543h15.82l3.756,27.543h1.024l2.504,-27.543h16.845z" fill="#000000" stroke-width="1"/><path d="M336.025,188.926c0,3.073 -0.455,7.626 -0.797,12.292h-25.95c0,5.918 2.732,8.536 7.854,8.536c4.667,0 8.991,-1.252 14.683,-2.618l1.593,14.113c-6.26,1.936 -11.95,2.959 -19.12,2.959c-15.935,0 -24.243,-11.381 -24.243,-28.567c0,-18.438 7.512,-28.454 24.129,-28.454c16.501,0 21.851,8.65 21.851,21.739zM308.937,191.544h9.901v-2.732c0,-3.414 -1.252,-5.349 -5.121,-5.349c-4.211,0 -4.78,3.414 -4.78,8.081z" fill="#000000" stroke-width="1"/><path d="M359.674,223.071h-18.894v-54.518h16.617l1.139,3.301h0.455c3.528,-3.983 6.146,-4.667 13.999,-4.667l-0.797,18.211h-5.235c-5.918,0 -7.284,1.252 -7.284,7.057z" fill="#000000" stroke-width="1"/><path d="M411.016,169.463l-1.935,15.82c-5.577,-1.252 -12.521,-2.617 -15.593,-2.617c-1.594,0 -2.391,0.683 -2.391,1.935c0,1.139 1.139,1.707 2.618,2.276c10.243,3.756 18.324,8.081 18.324,19.576c0,11.495 -4.895,17.755 -18.779,17.755c-5.805,0 -11.269,-0.91 -16.617,-2.275l1.252,-15.365c6.715,1.82 12.064,3.072 15.479,3.072c1.594,0 2.618,-0.455 2.618,-1.707c0,-1.252 -0.684,-1.707 -2.504,-2.39c-12.064,-4.667 -19.463,-9.22 -19.463,-20.601c0,-11.495 7.057,-17.756 19.349,-17.756c6.26,0.001 12.179,0.912 17.642,2.277z" fill="#000000" stroke-width="1"/><path d="M428.133,206.34c6.943,0 9.902,2.959 9.902,9.219c0,5.463 -2.959,8.764 -9.902,8.764c-7.17,0 -10.129,-3.301 -10.129,-8.991c0,-6.033 2.959,-8.992 10.129,-8.992zM418.232,152.391h19.349l-1.594,49.055h-16.503z" fill="#000000" stroke-width="1"/><path d="M13.5,126c0,-1.38071 1.11929,-2.5 2.5,-2.5c1.38071,0 2.5,1.11929 2.5,2.5c0,1.38071 -1.11929,2.5 -2.5,2.5c-1.38071,0 -2.5,-1.11929 -2.5,-2.5z" data-paper-data="{&quot;origPos&quot;:null}" fill="none" stroke-width="0.5"/><path d="M455,245c0,-4.69441 3.80559,-8.5 8.5,-8.5c4.69441,0 8.5,3.80559 8.5,8.5c0,4.69441 -3.80559,8.5 -8.5,8.5c-4.69441,0 -8.5,-3.80559 -8.5,-8.5z" data-paper-data="{&quot;origPos&quot;:null}" fill="none" stroke-width="0.5"/></g></g></svg>