<svg version="1.1" xmlns="http://www.w3.org/2000/svg" xmlns:xlink="http://www.w3.org/1999/xlink" width="354.366" height="324.28894"><g transform="translate(-60.999,-24.20163)"><g data-paper-data="{&quot;isPaintingLayer&quot;:true}" fill="none" fill-rule="nonzero" stroke="none" stroke-width="1" stroke-linecap="butt" stroke-linejoin="miter" stroke-miterlimit="10" stroke-dasharray="" stroke-dashoffset="0" font-family="none" font-weight="none" font-size="none" text-anchor="none" style="mix-blend-mode: normal"><text transform="translate(126.67213,54.01127) scale(0.59029,0.59029)" font-size="40" xml:space="preserve" data-paper-data="{&quot;origPos&quot;:null}" fill="#000000" fill-rule="nonzero" stroke="none" stroke-width="1" stroke-linecap="butt" stroke-linejoin="miter" stroke-miterlimit="10" stroke-dasharray="" stroke-dashoffset="0" font-family="Pixel" font-weight="normal" text-anchor="start" style="mix-blend-mode: normal"><tspan x="0" dy="0">YAY - We made it :)</tspan></text><text transform="translate(79.67213,344.26127) scale(0.40279,0.40279)" font-size="40" xml:space="preserve" data-paper-data="{&quot;origPos&quot;:null}" fill="#000000" fill-rule="nonzero" stroke="none" stroke-width="1" stroke-linecap="butt" stroke-linejoin="miter" stroke-miterlimit="10" stroke-dasharray="" stroke-dashoffset="0" font-family="Pixel" font-weight="normal" text-anchor="start" style="mix-blend-mode: normal"><tspan x="0" dy="0">Subscribe to Griffpatch on YouTube!</tspan></text><g data-paper-data="{&quot;origPos&quot;:null}" fill="#814d00"><path d="M91.89846,96.61532v41.40461h-15.06396v-41.40461h-10.8355l0.88084,-13.3023h36.11961l-0.88083,13.3023z"/><path d="M140.86138,105.51267v32.50726h-14.97573v-27.4862c0,-1.32125 -0.61689,-2.20209 -1.93814,-2.20209c-1.49773,0 -3.08292,0.43964 -4.14023,1.23301v28.45527h-14.80003v-56.46858h14.71179v17.35429h0.35295c2.37856,-2.02561 5.28578,-4.141 10.65902,-4.141c7.57532,0 10.13037,3.96452 10.13037,10.74803z"/><path d="M163.06179,112.56011v-2.11384c0,-1.40949 -0.70436,-2.4668 -2.4668,-2.4668c-2.99545,0 -8.28123,1.14477 -13.21406,2.55427l-2.20286,-12.86111c6.16661,-1.58597 13.03836,-2.90799 19.38145,-2.90799c9.2503,0 12.86187,3.87706 12.86187,12.06928c0,5.46225 -0.44042,12.15752 -0.44042,18.23667c0,2.29032 1.05731,2.81898 3.69981,2.81898l-1.32125,10.65902c-2.55504,0.17648 -3.43587,0.35217 -5.63796,0.35217c-3.87629,0 -6.95998,-1.05653 -8.28123,-4.4924h-0.44042c-2.02639,2.81898 -4.58065,4.4924 -10.0429,4.4924c-7.04745,0 -10.74804,-4.84536 -10.74804,-12.50892c0,-10.39585 7.13646,-12.77442 18.85279,-13.83173zM163.67869,125.15805v-4.3167c-4.05199,0.52943 -5.99013,1.40948 -5.99013,4.49318c0,2.11384 0.88083,3.25939 2.73074,3.25939c2.20209,-0.00078 3.25939,-1.05731 3.25939,-3.43587z"/><path d="M219.19523,105.51267v32.50726h-14.97572v-27.4862c0,-1.32125 -0.6169,-2.20209 -1.93815,-2.20209c-1.49773,0 -3.08292,0.43964 -4.14023,1.23301v28.45527h-14.80002v-42.19798h13.47877l0.88083,3.08292h0.35218c2.37856,-2.02561 5.63796,-4.141 11.01198,-4.141c7.5761,0.00078 10.13036,3.9653 10.13036,10.74881z"/><path d="M244.1976,138.01993l-5.37324,-16.20951h-0.35218v16.20951h-14.36038v-56.46858h14.53608v31.097h0.35218l6.43132,-16.82563h15.41615l-8.89735,21.05487l8.54517,21.14234z"/><path d="M306.74455,121.10529v16.91464h-14.9765v-16.91464l-12.86188,-37.79227h16.56169l3.96376,17.79471h0.70513l3.78805,-17.79471h15.85733z"/><path d="M353.49532,116.17169c0,16.20951 -5.28501,22.72831 -18.05942,22.72831c-12.86188,0 -18.4116,-6.6945 -18.4116,-22.11141c0,-15.59339 5.81443,-22.02394 18.4116,-22.02394c12.5097,0 18.05942,6.43133 18.05942,21.40705zM331.82432,115.81951v2.11385c0,7.92906 0.26472,9.95466 3.69982,9.95466c2.81898,0 3.25939,-1.93814 3.25939,-9.426v-2.55504c0,-7.22392 -0.26471,-9.2503 -3.4351,-9.2503c-3.17193,0.00078 -3.52411,2.02716 -3.52411,9.16284z"/><path d="M357.29188,127.2719v-31.44995h14.9765v27.83838c0,1.32125 0.61689,2.20286 1.93815,2.20286c1.4985,0 3.08369,-0.44042 4.141,-1.23378v-28.80745h14.80003v42.0215h-14.00743v-3.08291h-0.35218c-2.37856,2.02561 -5.63796,4.14022 -11.01275,4.14022c-7.5761,0 -10.48332,-4.84536 -10.48332,-11.62886z"/><path d="M407.70066,125.06981c5.37401,0 7.66434,2.29032 7.66434,7.13568c0,4.22847 -2.29032,6.78351 -7.66434,6.78351c-5.54972,0 -7.84004,-2.55504 -7.84004,-6.95921c0,-4.66966 2.29032,-6.95998 7.84004,-6.95998zM400.0371,83.31301h14.9765l-1.23379,37.96875h-12.77364z"/></g><g data-paper-data="{&quot;origPos&quot;:null}" fill="#ff9700"><path d="M86.89846,91.61532v41.40461h-15.06396v-41.40461h-10.8355l0.88083,-13.3023h36.11961l-0.88083,13.3023z"/><path d="M135.86138,100.51266v32.50727h-14.97573v-27.4862c0,-1.32125 -0.61689,-2.20208 -1.93814,-2.20208c-1.49773,0 -3.08292,0.43964 -4.14023,1.23301v28.45528h-14.80003v-56.46858h14.71179v17.35428h0.35295c2.37856,-2.02561 5.28578,-4.141 10.65902,-4.141c7.57532,0 10.13037,3.96453 10.13037,10.74803z"/><path d="M158.06179,107.56011v-2.11384c0,-1.40949 -0.70436,-2.4668 -2.4668,-2.4668c-2.99545,0 -8.28123,1.14477 -13.21406,2.55426l-2.20286,-12.8611c6.16661,-1.58596 13.03836,-2.90799 19.38145,-2.90799c9.2503,0 12.86187,3.87706 12.86187,12.06928c0,5.46225 -0.44042,12.15752 -0.44042,18.23667c0,2.29032 1.05731,2.81898 3.69981,2.81898l-1.32125,10.65902c-2.55504,0.17647 -3.43587,0.35217 -5.63796,0.35217c-3.87629,0 -6.95998,-1.05653 -8.28123,-4.49241h-0.44042c-2.02639,2.81898 -4.58065,4.49241 -10.0429,4.49241c-7.04745,0 -10.74804,-4.84536 -10.74804,-12.50893c0,-10.39585 7.13646,-12.77441 18.85279,-13.83172zM158.67869,120.15805v-4.31671c-4.05199,0.52943 -5.99013,1.40949 -5.99013,4.49318c0,2.11385 0.88083,3.25939 2.73074,3.25939c2.20209,-0.00077 3.25939,-1.05731 3.25939,-3.43587z"/><path d="M214.19523,100.51266v32.50727h-14.97572v-27.4862c0,-1.32125 -0.6169,-2.20208 -1.93815,-2.20208c-1.49773,0 -3.08292,0.43964 -4.14023,1.23301v28.45528h-14.80002v-42.19798h13.47877l0.88083,3.08292h0.35218c2.37856,-2.02561 5.63796,-4.141 11.01198,-4.141c7.5761,0.00078 10.13036,3.9653 10.13036,10.74881z"/><path d="M239.1976,133.01993l-5.37324,-16.20951h-0.35218v16.20951h-14.36038v-56.46858h14.53608v31.097h0.35218l6.43132,-16.82564h15.41615l-8.89735,21.05488l8.54517,21.14234z"/><path d="M301.74455,116.10529v16.91464h-14.9765v-16.91464l-12.86188,-37.79227h16.56169l3.96376,17.7947h0.70513l3.78805,-17.7947h15.85733z"/><path d="M348.49532,111.17168c0,16.20951 -5.28501,22.72831 -18.05942,22.72831c-12.86188,0 -18.4116,-6.6945 -18.4116,-22.11141c0,-15.59339 5.81443,-22.02394 18.4116,-22.02394c12.5097,0 18.05942,6.43132 18.05942,21.40705zM326.82432,110.8195v2.11385c0,7.92906 0.26472,9.95466 3.69982,9.95466c2.81898,0 3.25939,-1.93814 3.25939,-9.42601v-2.55504c0,-7.22392 -0.26471,-9.2503 -3.4351,-9.2503c-3.17193,0.00078 -3.52411,2.02715 -3.52411,9.16284z"/><path d="M352.29188,122.27189v-31.44995h14.9765v27.83838c0,1.32125 0.61689,2.20286 1.93815,2.20286c1.4985,0 3.08369,-0.44042 4.141,-1.23379v-28.80745h14.80003v42.0215h-14.00743v-3.08291h-0.35218c-2.37856,2.02561 -5.63796,4.14022 -11.01275,4.14022c-7.5761,0 -10.48332,-4.84536 -10.48332,-11.62887z"/><path d="M402.70066,120.06981c5.37401,0 7.66434,2.29033 7.66434,7.13569c0,4.22847 -2.29032,6.7835 -7.66434,6.7835c-5.54972,0 -7.84004,-2.55504 -7.84004,-6.95921c0,-4.66966 2.29032,-6.95998 7.84004,-6.95998zM395.0371,78.31301h14.9765l-1.23379,37.96874h-12.77364z"/></g></g></g></svg>