<svg version="1.1" xmlns="http://www.w3.org/2000/svg" xmlns:xlink="http://www.w3.org/1999/xlink" width="214.073" height="71.932"><g transform="translate(-118.962,-182.391)"><g data-paper-data="{&quot;isPaintingLayer&quot;:true}" fill="#000000" fill-rule="nonzero" stroke="none" stroke-width="1" stroke-linecap="butt" stroke-linejoin="miter" stroke-miterlimit="10" stroke-dasharray="" stroke-dashoffset="0" font-family="none" font-weight="none" font-size="none" text-anchor="none" style="mix-blend-mode: normal"><path d="M176.667,253.071h-20.829l-4.438,-22.99h-0.797l-4.325,22.99h-20.373l-6.943,-54.518h17.527l2.391,27.543h0.91l3.87,-27.543h15.82l3.756,27.543h1.024l2.504,-27.543h16.845z" data-paper-data="{&quot;origPos&quot;:null}"/><path d="M231.025,218.926c0,3.073 -0.455,7.626 -0.797,12.292h-25.95c0,5.918 2.732,8.536 7.854,8.536c4.667,0 8.991,-1.252 14.683,-2.618l1.593,14.113c-6.26,1.936 -11.95,2.959 -19.12,2.959c-15.935,0 -24.243,-11.381 -24.243,-28.567c0,-18.438 7.512,-28.454 24.129,-28.454c16.501,0 21.851,8.65 21.851,21.739zM203.937,221.544h9.901v-2.732c0,-3.414 -1.252,-5.349 -5.121,-5.349c-4.211,0 -4.78,3.414 -4.78,8.081z" data-paper-data="{&quot;origPos&quot;:null}"/><path d="M254.674,253.071h-18.894v-54.518h16.617l1.139,3.301h0.455c3.528,-3.983 6.146,-4.667 13.999,-4.667l-0.797,18.211h-5.235c-5.918,0 -7.284,1.252 -7.284,7.057z" data-paper-data="{&quot;origPos&quot;:null}"/><path d="M306.016,199.463l-1.935,15.82c-5.577,-1.252 -12.521,-2.617 -15.593,-2.617c-1.594,0 -2.391,0.683 -2.391,1.935c0,1.139 1.139,1.707 2.618,2.276c10.243,3.756 18.324,8.081 18.324,19.576c0,11.495 -4.895,17.755 -18.779,17.755c-5.805,0 -11.269,-0.91 -16.617,-2.275l1.252,-15.365c6.715,1.82 12.064,3.072 15.479,3.072c1.594,0 2.618,-0.455 2.618,-1.707c0,-1.252 -0.684,-1.707 -2.504,-2.39c-12.064,-4.667 -19.463,-9.22 -19.463,-20.601c0,-11.495 7.057,-17.756 19.349,-17.756c6.26,0.001 12.179,0.912 17.642,2.277z" data-paper-data="{&quot;origPos&quot;:null}"/><path d="M323.133,236.34c6.943,0 9.902,2.959 9.902,9.219c0,5.463 -2.959,8.764 -9.902,8.764c-7.17,0 -10.129,-3.301 -10.129,-8.991c0,-6.033 2.959,-8.992 10.129,-8.992zM313.232,182.391h19.349l-1.594,49.055h-16.503z" data-paper-data="{&quot;origPos&quot;:null}"/></g></g></svg>