<svg version="1.1" xmlns="http://www.w3.org/2000/svg" xmlns:xlink="http://www.w3.org/1999/xlink" width="184.208" height="74.89"><g transform="translate(-151.116,-179.318)"><g data-paper-data="{&quot;isPaintingLayer&quot;:true}" fill="#000000" fill-rule="nonzero" stroke="none" stroke-width="1" stroke-linecap="butt" stroke-linejoin="miter" stroke-miterlimit="10" stroke-dasharray="" stroke-dashoffset="0" font-family="none" font-weight="none" font-size="none" text-anchor="none" style="mix-blend-mode: normal"><path d="M186.285,180.001l-1.594,16.617c-3.073,-0.342 -6.032,-0.569 -7.739,-0.569c-1.479,0 -2.049,0.683 -2.049,2.049v2.049h9.333l-0.911,14.113h-8.194v38.811h-19.007v-38.811h-5.008v-14.113h5.008v-5.691c0,-9.561 4.894,-15.138 15.365,-15.138c5.008,0 10.926,0.342 14.796,0.683z" data-paper-data="{&quot;origPos&quot;:null}"/><path d="M232.449,224.844c0,20.942 -6.829,29.364 -23.332,29.364c-16.617,0 -23.788,-8.649 -23.788,-28.567c0,-20.146 7.512,-28.454 23.788,-28.454c16.161,0 23.332,8.309 23.332,27.657zM204.45,224.389v2.731c0,10.244 0.341,12.861 4.78,12.861c3.642,0 4.211,-2.504 4.211,-12.178v-3.301c0,-9.333 -0.341,-11.951 -4.438,-11.951c-4.098,0.001 -4.553,2.619 -4.553,11.838z" data-paper-data="{&quot;origPos&quot;:null}"/><path d="M237.354,180.115h18.779v54.404c0,2.504 1.024,3.528 3.87,3.528l-1.479,16.161h-6.26c-9.674,0 -14.91,-3.527 -14.91,-13.657z" data-paper-data="{&quot;origPos&quot;:null}"/><path d="M263.508,180.115h18.779v54.404c0,2.504 1.024,3.528 3.87,3.528l-1.479,16.161h-6.26c-9.674,0 -14.91,-3.527 -14.91,-13.657z" data-paper-data="{&quot;origPos&quot;:null}"/><path d="M335.324,224.844c0,20.942 -6.829,29.364 -23.332,29.364c-16.617,0 -23.788,-8.649 -23.788,-28.567c0,-20.146 7.512,-28.454 23.788,-28.454c16.161,0 23.332,8.309 23.332,27.657zM307.325,224.389v2.731c0,10.244 0.341,12.861 4.78,12.861c3.642,0 4.211,-2.504 4.211,-12.178v-3.301c0,-9.333 -0.341,-11.951 -4.438,-11.951c-4.098,0.001 -4.553,2.619 -4.553,11.838z" data-paper-data="{&quot;origPos&quot;:null}"/></g></g></svg>