<svg version="1.1" xmlns="http://www.w3.org/2000/svg" xmlns:xlink="http://www.w3.org/1999/xlink" width="60" height="60.001"><g transform="translate(-210,-150)"><g data-paper-data="{&quot;isPaintingLayer&quot;:true}" fill="none" fill-rule="nonzero" stroke="none" stroke-width="1" stroke-linecap="butt" stroke-linejoin="miter" stroke-miterlimit="10" stroke-dasharray="" stroke-dashoffset="0" font-family="none" font-weight="none" font-size="none" text-anchor="none" style="mix-blend-mode: normal"><path d="M210,210v-60h60v60z" fill="#a5ff00"/><path d="M270,185.714c-1.826,0.686 -3.606,0.957 -4.692,1.062c0.216,0.431 0.389,0.897 0.495,1.406c0.16,0.76 0.182,1.646 0.036,2.599c0.903,0.271 2.331,0.588 4.161,0.646v0.894c-1.891,-0.053 -3.373,-0.37 -4.344,-0.657c-1.083,4.221 -5.502,9.422 -16.201,11.527c-4.286,0.845 -7.634,1.23 -7.357,1.791c0.104,0.064 0.205,0.134 0.298,0.216c0.372,0.296 4.905,5.648 6.391,4.309c1.783,-1.559 4.235,-4.605 6.91,-2.154c0.835,0.764 0.917,1.695 0.571,2.648h-39.103c-0.522,-2.203 1.346,-3.648 2.938,-4.878c3.072,-2.215 5.665,-4.214 8.503,-3.374c-4.1,-1.767 -7.393,-4.496 -9.618,-8.068c-0.465,-0.746 -0.823,-1.505 -1.092,-2.267c-0.04,0 -0.083,0.003 -0.123,0.003c-2.061,0 -3.777,-0.25 -3.904,-0.269c-0.243,-0.035 -0.411,-0.263 -0.375,-0.505c0.036,-0.244 0.262,-0.418 0.506,-0.376c0.03,0.004 1.659,0.237 3.624,0.25c-0.466,-1.773 -0.483,-3.551 -0.234,-5.23c-2.143,-0.939 -4.077,-1.574 -4.112,-1.586c-0.235,-0.078 -0.363,-0.329 -0.286,-0.563c0.077,-0.234 0.328,-0.363 0.562,-0.285c0.139,0.045 1.941,0.638 4,1.529c0.972,-4.712 3.824,-8.441 4.035,-8.69l-1.56,-13.297c-0.074,-0.297 0.297,-0.52 0.594,-0.371l8.992,5.87c0,0 3.343,-1.264 6.836,-1.412c2.08,-0.148 3.863,0 5.573,0.298l6.39,-5.945c0.224,-0.149 0.595,-0.074 0.67,0.223l1.931,7.951c0,0 4.757,3.493 6.168,5.945c2.378,4.086 2.452,7.431 2.452,7.431c0,0 3.34,0.994 5.153,3.537c0.976,-0.074 3.105,-0.325 5.212,-1.17zM253.989,191.971c-1.115,0.224 -3.493,0.446 -7.506,0.224c-4.458,-0.298 -8.471,-1.487 -9.883,-2.008c-0.298,-0.075 -0.595,0.149 -0.595,0.446c-0.223,3.641 0.446,8.397 7.208,9.14c7.802,0.446 10.626,-5.127 11.295,-7.133c0.148,-0.372 -0.149,-0.744 -0.519,-0.669z" fill="#ffffff"/></g></g></svg>