<?xml version="1.0" encoding="utf-8"?>
<!-- Generator: Adobe Illustrator 14.0.0, SVG Export Plug-In  -->
<!DOCTYPE svg PUBLIC "-//W3C//DTD SVG 1.1//EN" "http://www.w3.org/Graphics/SVG/1.1/DTD/svg11.dtd" [
	<!ENTITY ns_flows "http://ns.adobe.com/Flows/1.0/">
]>
<svg version="1.1"
	 xmlns="http://www.w3.org/2000/svg" xmlns:xlink="http://www.w3.org/1999/xlink" xmlns:a="http://ns.adobe.com/AdobeSVGViewerExtensions/3.0/"
	 x="0px" y="0px" width="60px" height="60px" viewBox="0 0 60 60" enable-background="new 0 0 60 60" xml:space="preserve">
<defs>
</defs>
<rect fill="#9DB4E4" width="60" height="60"/>
<path fill="#FFFFFF" d="M60,34.752c-2.107,0.845-4.236,1.096-5.212,1.17c-1.813-2.543-5.153-3.537-5.153-3.537
	s-0.074-3.345-2.452-7.431c-1.411-2.452-6.168-5.945-6.168-5.945l-1.931-7.951c-0.075-0.297-0.446-0.372-0.67-0.223l-6.39,5.945
	c-1.71-0.298-3.493-0.446-5.573-0.298c-3.493,0.148-6.836,1.412-6.836,1.412l-8.992-5.87c-0.297-0.149-0.668,0.074-0.594,0.371
	l1.56,13.297c-0.211,0.249-3.063,3.978-4.035,8.69c-2.059-0.891-3.861-1.484-4-1.529c-0.234-0.078-0.485,0.051-0.562,0.285
	s0.051,0.485,0.286,0.563c0.035,0.012,1.969,0.647,4.112,1.586c-0.249,1.679-0.232,3.457,0.234,5.23
	C5.659,40.504,4.03,40.271,4,40.267c-0.244-0.042-0.47,0.132-0.506,0.376c-0.036,0.242,0.132,0.47,0.375,0.505
	c0.127,0.019,1.843,0.269,3.904,0.269c0.04,0,0.083-0.003,0.123-0.003c0.269,0.762,0.627,1.521,1.092,2.267
	c2.225,3.572,5.518,6.301,9.618,8.068c-2.838-0.84-5.431,1.159-8.503,3.374c-1.592,1.23-3.46,2.675-2.938,4.878h39.103
	c0.346-0.953,0.264-1.884-0.571-2.648c-2.675-2.451-5.127,0.595-6.91,2.154c-1.486,1.339-6.019-4.013-6.391-4.309
	c-0.093-0.082-0.194-0.152-0.298-0.216c-0.277-0.561,3.071-0.946,7.357-1.791c10.699-2.105,15.118-7.306,16.201-11.527
	c0.971,0.287,2.453,0.604,4.344,0.657v-0.894c-1.83-0.058-3.258-0.375-4.161-0.646c0.146-0.953,0.124-1.839-0.036-2.599
	c-0.106-0.509-0.279-0.975-0.495-1.406c1.086-0.105,2.866-0.376,4.692-1.062V34.752z M44.508,42.64
	c-0.669,2.006-3.493,7.579-11.295,7.133c-6.762-0.743-7.431-5.499-7.208-9.14c0-0.297,0.297-0.521,0.595-0.446
	c1.412,0.521,5.425,1.71,9.883,2.008c4.013,0.222,6.391,0,7.506-0.224C44.359,41.896,44.656,42.268,44.508,42.64z"/>
</svg>
